{
  "accessors": [
    {
      "bufferView": 2,
      "componentType": 5126,
      "count": 27927,
      "max": [
        0.16146686673164368,
        0.23045921325683594,
        0.18936598300933838
      ],
      "min": [
        -0.16999787092208862,
        -0.23495280742645264,
        -0.22287055850028992
      ],
      "type": "VEC3"
    },
    {
      "bufferView": 2,
      "byteOffset": 335124,
      "componentType": 5126,
      "count": 27927,
      "max": [
        0.99994188547134399,
        0.99989563226699829,
        0.99987995624542236
      ],
      "min": [
        -0.99999988079071045,
        -0.99990934133529663,
        -0.99995231628417969
      ],
      "type": "VEC3"
    },
    {
      "bufferView": 3,
      "componentType": 5126,
      "count": 27927,
      "max": [
        0.99999731779098511,
        0.99943560361862183,
        0.99950778484344482,
        1
      ],
      "min": [
        -0.99913465976715088,
        -0.9998856782913208,
        -0.99994999170303345,
        -1
      ],
      "type": "VEC4"
    },
    {
      "bufferView": 1,
      "componentType": 5126,
      "count": 27927,
      "max": [
        0.92704105377197266,
        0.99867278337478638
      ],
      "min": [
        0.0013272383948788047,
        0.001327216625213623
      ],
      "type": "VEC2"
    },
    {
      "bufferView": 0,
      "componentType": 5125,
      "count": 151680,
      "max": [
        27926
      ],
      "min": [
        0
      ],
      "type": "SCALAR"
    }
  ],
  "asset": {
    "extras": {
      "author": "alban (https://sketchfab.com/alban)",
      "license": "CC-BY-4.0 (http://creativecommons.org/licenses/by/4.0/)",
      "source": "https://sketchfab.com/models/3f5948f7f47343acb868072a7fe92ada",
      "title": "Retreat Herschel bag"
    },
    "generator": "Sketchfab-3.47.8",
    "version": "2.0"
  },
  "bufferViews": [
    {
      "buffer": 0,
      "byteLength": 606720,
      "byteOffset": 0,
      "name": "floatBufferViews",
      "target": 34963
    },
    {
      "buffer": 0,
      "byteLength": 223416,
      "byteOffset": 606720,
      "byteStride": 8,
      "name": "floatBufferViews",
      "target": 34962
    },
    {
      "buffer": 0,
      "byteLength": 670248,
      "byteOffset": 830136,
      "byteStride": 12,
      "name": "floatBufferViews",
      "target": 34962
    },
    {
      "buffer": 0,
      "byteLength": 446832,
      "byteOffset": 1500384,
      "byteStride": 16,
      "name": "floatBufferViews",
      "target": 34962
    }
  ],
  "buffers": [
    {
      "byteLength": 1947216,
      "uri": "scene.bin"
    }
  ],
  "extensionsUsed": [
    "KHR_materials_unlit"
  ],
  "images": [
    {
      "uri": "textures/material_0_baseColor.jpeg"
    }
  ],
  "materials": [
    {
      "doubleSided": true,
      "emissiveFactor": [
        0,
        0,
        0
      ],
      "extensions": {
        "KHR_materials_unlit": {}
      },
      "name": "material_0",
      "pbrMetallicRoughness": {
        "baseColorFactor": [
          1,
          1,
          1,
          1
        ],
        "baseColorTexture": {
          "index": 0,
          "texCoord": 0
        },
        "metallicFactor": 0,
        "roughnessFactor": 1
      }
    }
  ],
  "meshes": [
    {
      "primitives": [
        {
          "attributes": {
            "NORMAL": 1,
            "POSITION": 0,
            "TANGENT": 2,
            "TEXCOORD_0": 3
          },
          "indices": 4,
          "material": 0,
          "mode": 4
        }
      ]
    }
  ],
  "nodes": [
    {
      "children": [
        1
      ],
      "name": "RootNode (gltf orientation matrix)",
      "rotation": [
        -0.70710678118654746,
        -0,
        -0,
        0.70710678118654757
      ]
    },
    {
      "children": [
        2
      ],
      "matrix": [
        0.98639237880706787,
        -0.15591840445995331,
        0.052149415016174316,
        0,
        0.11837289482355118,
        0.45339468121528625,
        -0.88341444730758667,
        0,
        0.11409630626440048,
        0.87756633758544922,
        0.46568155288696289,
        0,
        0.002119407756254077,
        0.01280911173671484,
        -0.010713981464505196,
        1
      ],
      "name": "RootNode (model correction matrix)"
    },
    {
      "children": [
        3
      ],
      "name": "model_mesh.obj.cleaner.gles"
    },
    {
      "mesh": 0,
      "name": ""
    }
  ],
  "samplers": [
    {
      "magFilter": 9729,
      "minFilter": 9987,
      "wrapS": 10497,
      "wrapT": 10497
    }
  ],
  "scene": 0,
  "scenes": [
    {
      "name": "OSG_Scene",
      "nodes": [
        0
      ]
    }
  ],
  "textures": [
    {
      "sampler": 0,
      "source": 0
    }
  ]
}

